<svg xmlns="http://www.w3.org/2000/svg" xmlns:xlink="http://www.w3.org/1999/xlink" width="1920" height="1080" viewBox="0 0 1920 1080">
  <defs>
    <linearGradient id="linear-gradient" x1="0.5" x2="0.5" y2="1" gradientUnits="objectBoundingBox">
      <stop offset="0" stop-color="#54006d"/>
      <stop offset="0.442" stop-color="#bb575e"/>
      <stop offset="1" stop-color="#150422"/>
    </linearGradient>
    <clipPath id="clip-Web_1920_4">
      <rect width="1920" height="1080"/>
    </clipPath>
  </defs>
  <g id="Web_1920_4" data-name="Web 1920 – 4" clip-path="url(#clip-Web_1920_4)">
    <rect width="1920" height="1080" fill="url(#linear-gradient)"/>
    <path id="Path_165" data-name="Path 165" d="M278,12037.534" transform="translate(-278 -11021)" fill="none" stroke="#707070" stroke-width="1"/>
    <g id="Path_212" data-name="Path 212" transform="translate(-1494.827 388.72) rotate(-17)" fill="#fff">
      <path d="M 1253.579833984375 1016.034301757813 C 1210.826416015625 1016.034301757813 1167.710205078125 1015.151489257813 1125.42919921875 1013.410522460938 C 1083.760131835938 1011.694885253906 1041.889892578125 1009.103942871094 1000.981079101563 1005.709899902344 C 960.60205078125 1002.359619140625 920.1895141601563 998.146484375 880.8660888671875 993.1873779296875 C 841.9832763671875 988.283935546875 803.2407836914063 982.5346069335938 765.7145385742188 976.0993041992188 C 728.5357666015625 969.7233276367188 691.6751708984375 962.5239868164063 656.1570434570313 954.7008666992188 C 620.8917236328125 946.9336547851563 586.12548828125 938.369873046875 552.8236083984375 929.248046875 C 519.68359375 920.1702270507813 487.2235717773438 910.3286743164063 456.345458984375 899.9964599609375 C 425.5438842773438 889.690185546875 395.6023254394531 878.6567993164063 367.3529663085938 867.2026977539063 C 339.1051330566406 855.7495727539063 311.89453125 843.61083984375 286.4773254394531 831.1233520507813 C 260.99951171875 818.6064453125 236.7323303222656 805.4486694335938 214.3492126464844 792.0151977539063 C 191.8598327636719 778.518310546875 170.7476501464844 764.4283447265625 151.5995178222656 750.1367797851563 C 132.3170166015625 735.744873046875 114.5723342895508 720.8098754882813 98.85858154296875 705.7467651367188 C 83.001708984375 690.546142578125 68.83608245849609 674.8539428710938 56.75545883178711 659.1058349609375 C 50.66952133178711 651.1727294921875 44.99483489990234 643.0698852539063 39.88827133178711 635.0230102539063 C 34.75139617919922 626.9280395507813 30.05014610290527 618.6689453125 25.91483306884766 610.4752197265625 C 21.75295829772949 602.229248046875 18.05108451843262 593.8245849609375 14.91202163696289 585.494873046875 C 11.751708984375 577.1083374023438 9.075146675109863 568.5686645507813 6.957334041595459 560.113037109375 C 4.823896408081055 551.5961303710938 3.198896408081055 542.9317626953125 2.127333879470825 534.3605346679688 C 1.047646522521973 525.7236328125 0.5001465082168579 516.944580078125 0.5001465082168579 508.26708984375 C 0.5001465082168579 499.589599609375 1.047646522521973 490.8105163574219 2.127333879470825 482.1736450195313 C 3.198896408081055 473.6024169921875 4.823896408081055 464.9380187988281 6.957334041595459 456.421142578125 C 9.075146675109863 447.9655151367188 11.751708984375 439.4258422851563 14.91202163696289 431.0392761230469 C 18.05108451843262 422.7095947265625 21.75295829772949 414.3049011230469 25.91483306884766 406.0589599609375 C 30.05014610290527 397.8652038574219 34.75139617919922 389.6061401367188 39.88827133178711 381.5111389160156 C 44.99483489990234 373.4642639160156 50.66952133178711 365.3614501953125 56.75545883178711 357.4283447265625 C 68.83608245849609 341.6802062988281 83.001708984375 325.988037109375 98.85858154296875 310.7874145507813 C 114.5723342895508 295.7242736816406 132.3170166015625 280.7892761230469 151.5995178222656 266.3973999023438 C 170.7476501464844 252.1058349609375 191.8598327636719 238.0158386230469 214.3492126464844 224.5189666748047 C 236.7323303222656 211.0855255126953 260.99951171875 197.9277191162109 286.4773254394531 185.4108428955078 C 311.89453125 172.92333984375 339.1051330566406 160.7845916748047 367.3529663085938 149.3314666748047 C 395.6023254394531 137.8773956298828 425.5438842773438 126.8439636230469 456.345458984375 116.537712097168 C 487.2235717773438 106.2055282592773 519.68359375 96.36396789550781 552.8236083984375 87.28615570068359 C 586.12548828125 78.16427612304688 620.8917236328125 69.60052490234375 656.1570434570313 61.83333969116211 C 691.6751708984375 54.01021575927734 728.5357666015625 46.81084060668945 765.7145385742188 40.43490219116211 C 803.2407836914063 33.99958801269531 841.9832763671875 28.25021553039551 880.8660888671875 23.34677696228027 C 920.1895141601563 18.38771438598633 960.60205078125 14.17459011077881 1000.981079101563 10.8242769241333 C 1041.889892578125 7.430214881896973 1083.760131835938 4.839277267456055 1125.42919921875 3.123652458190918 C 1167.710205078125 1.382714867591858 1210.826416015625 0.4999023377895355 1253.579833984375 0.4999023377895355 C 1296.333251953125 0.4999023377895355 1339.449462890625 1.382714867591858 1381.73046875 3.123652458190918 C 1423.399536132813 4.839277267456055 1465.269775390625 7.430214881896973 1506.178588867188 10.8242769241333 C 1546.557983398438 14.17459011077881 1586.970458984375 18.38771438598633 1626.293579101563 23.34677696228027 C 1665.1767578125 28.25021553039551 1703.919189453125 33.99958801269531 1741.445434570313 40.43490219116211 C 1778.624267578125 46.81084060668945 1815.48486328125 54.01021575927734 1851.0029296875 61.83333969116211 C 1886.268310546875 69.60052490234375 1921.034545898438 78.16427612304688 1954.33642578125 87.28615570068359 C 1987.476440429688 96.36396789550781 2019.936401367188 106.2055282592773 2050.814453125 116.537712097168 C 2081.615966796875 126.8439636230469 2111.5576171875 137.8773956298828 2139.80712890625 149.3314666748047 C 2168.05517578125 160.7845916748047 2195.265380859375 172.92333984375 2220.6826171875 185.4108428955078 C 2246.160400390625 197.9277191162109 2270.427734375 211.0855255126953 2292.810791015625 224.5189666748047 C 2315.300048828125 238.0158386230469 2336.412353515625 252.1058349609375 2355.560546875 266.3973999023438 C 2374.843017578125 280.7892761230469 2392.587646484375 295.7242736816406 2408.301513671875 310.7874145507813 C 2424.158203125 325.988037109375 2438.323974609375 341.6802062988281 2450.404541015625 357.4283447265625 C 2456.490478515625 365.3614501953125 2462.1650390625 373.4642639160156 2467.271728515625 381.5111389160156 C 2472.40869140625 389.6061401367188 2477.10986328125 397.8652038574219 2481.2451171875 406.0589599609375 C 2485.406982421875 414.3049011230469 2489.10888671875 422.7095947265625 2492.248046875 431.0392761230469 C 2495.40869140625 439.4258422851563 2498.084716796875 447.9655151367188 2500.20263671875 456.421142578125 C 2502.336181640625 464.9380187988281 2503.961181640625 473.6024169921875 2505.03271484375 482.1736450195313 C 2506.1123046875 490.8105163574219 2506.659912109375 499.589599609375 2506.659912109375 508.26708984375 C 2506.659912109375 516.944580078125 2506.1123046875 525.7236328125 2505.03271484375 534.3605346679688 C 2503.961181640625 542.9317626953125 2502.336181640625 551.5961303710938 2500.20263671875 560.113037109375 C 2498.084716796875 568.5686645507813 2495.40869140625 577.1083374023438 2492.248046875 585.494873046875 C 2489.10888671875 593.8245849609375 2485.406982421875 602.229248046875 2481.2451171875 610.4752197265625 C 2477.10986328125 618.6689453125 2472.40869140625 626.9280395507813 2467.271728515625 635.0230102539063 C 2462.1650390625 643.0698852539063 2456.490478515625 651.1727294921875 2450.404541015625 659.1058349609375 C 2438.323974609375 674.8539428710938 2424.158203125 690.546142578125 2408.301513671875 705.7467651367188 C 2392.587646484375 720.8098754882813 2374.843017578125 735.744873046875 2355.560546875 750.1367797851563 C 2336.412353515625 764.4283447265625 2315.300048828125 778.518310546875 2292.810791015625 792.0151977539063 C 2270.427734375 805.4486694335938 2246.160400390625 818.6064453125 2220.6826171875 831.1233520507813 C 2195.265380859375 843.61083984375 2168.05517578125 855.7495727539063 2139.80712890625 867.2026977539063 C 2111.5576171875 878.6567993164063 2081.615966796875 889.690185546875 2050.814453125 899.9964599609375 C 2019.936401367188 910.3286743164063 1987.476440429688 920.1702270507813 1954.33642578125 929.248046875 C 1921.034545898438 938.369873046875 1886.268310546875 946.9336547851563 1851.0029296875 954.7008666992188 C 1815.48486328125 962.5239868164063 1778.624267578125 969.7233276367188 1741.445434570313 976.0993041992188 C 1703.919189453125 982.5346069335938 1665.1767578125 988.283935546875 1626.293579101563 993.1873779296875 C 1586.970458984375 998.146484375 1546.557983398438 1002.359619140625 1506.178588867188 1005.709899902344 C 1465.269775390625 1009.103942871094 1423.399536132813 1011.694885253906 1381.73046875 1013.410522460938 C 1339.449462890625 1015.151489257813 1296.333251953125 1016.034301757813 1253.579833984375 1016.034301757813 Z" stroke="none"/>
      <path d="M 1253.579833984375 0.9998779296875 C 1210.833251953125 0.9998779296875 1167.723876953125 1.88238525390625 1125.449829101563 3.623046875 C 1083.78759765625 5.338623046875 1041.924194335938 7.92926025390625 1001.022338867188 11.32269287109375 C 960.650146484375 14.672119140625 920.244873046875 18.88458251953125 880.9285888671875 23.84271240234375 C 842.052978515625 28.7452392578125 803.317626953125 34.49365234375 765.7989501953125 40.927734375 C 728.627685546875 47.30206298828125 691.7747802734375 54.500244140625 656.26416015625 62.32147216796875 C 621.00732421875 70.08709716796875 586.249267578125 78.648681640625 552.9554443359375 87.768310546875 C 519.82421875 96.8436279296875 487.373291015625 106.6827392578125 456.50390625 117.0117797851563 C 425.7119140625 127.3148803710938 395.780517578125 138.3449096679688 367.540771484375 149.7946166992188 C 339.303466796875 161.2433471679688 312.104248046875 173.3773803710938 286.69775390625 185.859619140625 C 261.232421875 198.3705444335938 236.977294921875 211.521484375 214.606201171875 224.9473876953125 C 192.131103515625 238.4358520507813 171.033203125 252.5164794921875 151.898193359375 266.79833984375 C 132.63232421875 281.177734375 114.9033203125 296.0993041992188 99.20458984375 311.1483154296875 C 83.36572265625 326.3314819335938 69.217041015625 342.0045776367188 57.151611328125 357.7327270507813 C 51.074951171875 365.654296875 45.40869140625 373.7445678710938 40.31005859375 381.7789916992188 C 35.18212890625 389.8602294921875 30.489013671875 398.1049194335938 26.36083984375 406.283935546875 C 22.20703125 414.5142822265625 18.5126953125 422.9024047851563 15.379638671875 431.2155151367188 C 12.225830078125 439.5842895507813 9.55517578125 448.1055297851563 7.442138671875 456.542724609375 C 5.3134765625 465.0399169921875 3.6923828125 473.6842651367188 2.623291015625 482.23583984375 C 1.546142578125 490.8521118164063 0.999755859375 499.6102294921875 0.999755859375 508.26708984375 C 0.999755859375 516.9239501953125 1.546142578125 525.68212890625 2.623291015625 534.29833984375 C 3.6923828125 542.8499145507813 5.3134765625 551.4942626953125 7.442138671875 559.991455078125 C 9.55517578125 568.4286499023438 12.225830078125 576.9498901367188 15.379638671875 585.3186645507813 C 18.5126953125 593.6317749023438 22.20703125 602.0198974609375 26.36083984375 610.250244140625 C 30.489013671875 618.4293212890625 35.18212890625 626.6739501953125 40.31005859375 634.7552490234375 C 45.40869140625 642.78955078125 51.074951171875 650.8798828125 57.151611328125 658.8014526367188 C 69.217041015625 674.5296020507813 83.36572265625 690.2027587890625 99.20458984375 705.3858642578125 C 114.9033203125 720.4349365234375 132.63232421875 735.3564453125 151.898193359375 749.73583984375 C 171.033203125 764.0177001953125 192.131103515625 778.0983276367188 214.606201171875 791.5867919921875 C 236.977294921875 805.0126953125 261.232421875 818.1636352539063 286.69775390625 830.674560546875 C 312.104248046875 843.1567993164063 339.303466796875 855.2908325195313 367.540771484375 866.7396240234375 C 395.780517578125 878.1892700195313 425.7119140625 889.2192993164063 456.50390625 899.5223999023438 C 487.373291015625 909.8514404296875 519.82421875 919.6905517578125 552.9554443359375 928.765869140625 C 586.249267578125 937.885498046875 621.00732421875 946.4470825195313 656.26416015625 954.2127075195313 C 691.7747802734375 962.033935546875 728.627685546875 969.2321166992188 765.7989501953125 975.6064453125 C 803.317626953125 982.04052734375 842.052978515625 987.7889404296875 880.9285888671875 992.6914672851563 C 920.244873046875 997.6495971679688 960.650146484375 1001.862060546875 1001.022338867188 1005.211486816406 C 1041.924194335938 1008.604919433594 1083.78759765625 1011.195556640625 1125.449829101563 1012.9111328125 C 1167.723876953125 1014.651794433594 1210.833251953125 1015.534301757813 1253.579833984375 1015.534301757813 C 1296.326416015625 1015.534301757813 1339.435791015625 1014.651794433594 1381.709838867188 1012.9111328125 C 1423.3720703125 1011.195556640625 1465.235473632813 1008.604919433594 1506.137329101563 1005.211486816406 C 1546.50927734375 1001.862060546875 1586.914794921875 997.6495971679688 1626.231079101563 992.6914672851563 C 1665.106689453125 987.7889404296875 1703.842041015625 982.04052734375 1741.36083984375 975.6064453125 C 1778.53173828125 969.2321166992188 1815.384521484375 962.033935546875 1850.8955078125 954.2127075195313 C 1886.15234375 946.4470825195313 1920.910400390625 937.885498046875 1954.203857421875 928.765869140625 C 1987.335205078125 919.6905517578125 2019.7861328125 909.8514404296875 2050.65576171875 899.5223999023438 C 2081.447265625 889.2192993164063 2111.37890625 878.1892700195313 2139.618896484375 866.7396240234375 C 2167.855712890625 855.2908325195313 2195.055419921875 843.1567993164063 2220.4619140625 830.674560546875 C 2245.927001953125 818.1636352539063 2270.18212890625 805.0126953125 2292.55322265625 791.5867919921875 C 2315.0283203125 778.0983276367188 2336.12646484375 764.0177001953125 2355.260986328125 749.73583984375 C 2374.52734375 735.3564453125 2392.256103515625 720.4349365234375 2407.955078125 705.3858642578125 C 2423.7939453125 690.2027587890625 2437.9423828125 674.5296020507813 2450.007568359375 658.8014526367188 C 2456.08447265625 650.8798828125 2461.750732421875 642.78955078125 2466.84912109375 634.7552490234375 C 2471.977294921875 626.6739501953125 2476.67041015625 618.4293212890625 2480.798583984375 610.250244140625 C 2484.952392578125 602.0198974609375 2488.646728515625 593.6317749023438 2491.77978515625 585.3186645507813 C 2494.93359375 576.9498901367188 2497.604248046875 568.4286499023438 2499.71728515625 559.991455078125 C 2501.845703125 551.4942626953125 2503.467041015625 542.8499145507813 2504.5361328125 534.29833984375 C 2505.61328125 525.68212890625 2506.159423828125 516.9239501953125 2506.159423828125 508.26708984375 C 2506.159423828125 499.6102294921875 2505.61328125 490.8521118164063 2504.5361328125 482.23583984375 C 2503.467041015625 473.6842651367188 2501.845703125 465.0399169921875 2499.71728515625 456.542724609375 C 2497.604248046875 448.1055297851563 2494.93359375 439.5842895507813 2491.77978515625 431.2155151367188 C 2488.646728515625 422.9024047851563 2484.952392578125 414.5142822265625 2480.798583984375 406.283935546875 C 2476.67041015625 398.1049194335938 2471.977294921875 389.8602294921875 2466.84912109375 381.7789916992188 C 2461.750732421875 373.7445678710938 2456.08447265625 365.654296875 2450.007568359375 357.7327270507813 C 2437.9423828125 342.0045776367188 2423.7939453125 326.3314819335938 2407.955078125 311.1483154296875 C 2392.256103515625 296.0993041992188 2374.52734375 281.177734375 2355.260986328125 266.79833984375 C 2336.12646484375 252.5164794921875 2315.0283203125 238.4358520507813 2292.55322265625 224.9473876953125 C 2270.18212890625 211.521484375 2245.927001953125 198.3705444335938 2220.4619140625 185.859619140625 C 2195.055419921875 173.3773803710938 2167.855712890625 161.2433471679688 2139.618896484375 149.7946166992188 C 2111.37890625 138.3449096679688 2081.447265625 127.3148803710938 2050.65576171875 117.0117797851563 C 2019.7861328125 106.6827392578125 1987.335205078125 96.8436279296875 1954.203857421875 87.768310546875 C 1920.910400390625 78.648681640625 1886.15234375 70.08709716796875 1850.8955078125 62.32147216796875 C 1815.384521484375 54.500244140625 1778.53173828125 47.30206298828125 1741.36083984375 40.927734375 C 1703.842041015625 34.49365234375 1665.106689453125 28.7452392578125 1626.231079101563 23.84271240234375 C 1586.914794921875 18.88458251953125 1546.50927734375 14.672119140625 1506.137329101563 11.32269287109375 C 1465.235473632813 7.92926025390625 1423.3720703125 5.338623046875 1381.709838867188 3.623046875 C 1339.435791015625 1.88238525390625 1296.326416015625 0.9998779296875 1253.579833984375 0.9998779296875 M 1253.579833984375 -0.0001220703125 C 1945.912963867188 -0.0001220703125 2507.159423828125 227.5589599609375 2507.159423828125 508.26708984375 C 2507.159423828125 788.9752197265625 1945.912963867188 1016.534301757813 1253.579833984375 1016.534301757813 C 561.2467041015625 1016.534301757813 -0.000244140625 788.9752197265625 -0.000244140625 508.26708984375 C -0.000244140625 227.5589599609375 561.2467041015625 -0.0001220703125 1253.579833984375 -0.0001220703125 Z" stroke="none" fill="#707070"/>
    </g>
  </g>
</svg>
