<svg xmlns="http://www.w3.org/2000/svg" xmlns:xlink="http://www.w3.org/1999/xlink" width="1920" height="1080" viewBox="0 0 1920 1080"><defs><filter id="a" x="1464.003" y="301.121" width="137.243" height="249" filterUnits="userSpaceOnUse"><feOffset dy="15" input="SourceAlpha"/><feGaussianBlur stdDeviation="3" result="b"/><feFlood flood-opacity="0.161"/><feComposite operator="in" in2="b"/><feComposite in="SourceGraphic"/></filter><filter id="c" x="1247.455" y="469.172" width="185" height="101" filterUnits="userSpaceOnUse"><feOffset dx="5" dy="3" input="SourceAlpha"/><feGaussianBlur stdDeviation="3" result="d"/><feFlood flood-opacity="0.161"/><feComposite operator="in" in2="d"/><feComposite in="SourceGraphic"/></filter><clipPath id="e"><rect width="15" height="144" fill="none"/></clipPath><filter id="f" x="1485.189" y="381.139" width="97" height="98" filterUnits="userSpaceOnUse"><feOffset dy="12" input="SourceAlpha"/><feGaussianBlur stdDeviation="8" result="g"/><feFlood flood-color="#3a2424" flood-opacity="0.161"/><feComposite operator="in" in2="g"/><feComposite in="SourceGraphic"/></filter><filter id="h" x="1485.189" y="318.611" width="97" height="99.497" filterUnits="userSpaceOnUse"><feOffset dy="12" input="SourceAlpha"/><feGaussianBlur stdDeviation="8" result="i"/><feFlood flood-color="#3a2424" flood-opacity="0.161"/><feComposite operator="in" in2="i"/><feComposite in="SourceGraphic"/></filter><filter id="j" x="1493.197" y="452.169" width="97" height="99" filterUnits="userSpaceOnUse"><feOffset dx="8" dy="20" input="SourceAlpha"/><feGaussianBlur stdDeviation="8" result="k"/><feFlood flood-color="#3a2424" flood-opacity="0.161"/><feComposite operator="in" in2="k"/><feComposite in="SourceGraphic"/></filter><filter id="l" x="1248.452" y="312.771" width="126" height="62" filterUnits="userSpaceOnUse"><feOffset dx="5" dy="3" input="SourceAlpha"/><feGaussianBlur stdDeviation="3" result="m"/><feFlood flood-opacity="0.161"/><feComposite operator="in" in2="m"/><feComposite in="SourceGraphic"/></filter><filter id="n" x="1224.35" y="391.926" width="175" height="96" filterUnits="userSpaceOnUse"><feOffset dx="5" dy="3" input="SourceAlpha"/><feGaussianBlur stdDeviation="3" result="o"/><feFlood flood-opacity="0.161"/><feComposite operator="in" in2="o"/><feComposite in="SourceGraphic"/></filter><clipPath id="q"><rect width="1920" height="1080"/></clipPath></defs><g id="p" clip-path="url(#q)"><rect width="1920" height="1080" fill="#fff"/><path d="M278,12037.534" transform="translate(-278 -11021)" fill="none" stroke="#707070" stroke-width="1"/><text transform="translate(397.609 305.123)" fill="#1b0d35" font-size="120" font-family="Dosis-Bold, Dosis" font-weight="700" letter-spacing="0.01em"><tspan x="0" y="123">Learn Script </tspan></text><text transform="translate(605.51 465.184)" fill="#2e1b27" stroke="#1b0d35" stroke-width="1" font-size="45" font-family="Dosis-Bold, Dosis" font-weight="700"><tspan x="0" y="46">Community</tspan></text><g transform="matrix(1, 0, 0, 1, 0, 0)" filter="url(#a)"><g transform="translate(3741 -139.88)" fill="#393333"><path d="M -2208.440673828125 665.5 C -2216.49658203125 665.5 -2224.26220703125 663.115966796875 -2230.89794921875 658.6056518554688 C -2234.0966796875 656.431396484375 -2236.9619140625 653.8095703125 -2239.41357421875 650.8130493164063 C -2241.883544921875 647.79443359375 -2243.892578125 644.4453735351563 -2245.38525390625 640.8589477539063 L -2245.513427734375 640.5510864257813 L -2245.846923828125 640.5510864257813 L -2267.257080078125 640.5510864257813 L -2267.257080078125 603.5513305664063 L -2248.93994140625 603.5513305664063 L -2248.43994140625 603.5513305664063 L -2248.43994140625 603.0513305664063 L -2248.43994140625 571.052734375 L -2248.43994140625 570.552734375 L -2248.93994140625 570.552734375 L -2267.5 570.552734375 L -2267.5 533.5529174804688 L -2248.93994140625 533.5529174804688 L -2248.43994140625 533.5529174804688 L -2248.43994140625 533.0529174804688 L -2248.43994140625 506.9898071289063 L -2248.43994140625 506.4898071289063 L -2248.93994140625 506.4898071289063 L -2267.257080078125 506.4898071289063 L -2267.257080078125 469.4891052246094 L -2246.971435546875 469.4891052246094 L -2246.60791015625 469.4891052246094 L -2246.495849609375 469.1434326171875 C -2245.208740234375 465.1770324707031 -2243.310546875 461.4467468261719 -2240.853759765625 458.0561828613281 C -2238.42724609375 454.7070922851563 -2235.510009765625 451.7628479003906 -2232.18310546875 449.3052062988281 C -2228.817138671875 446.8188171386719 -2225.10693359375 444.8868713378906 -2221.155517578125 443.5630798339844 C -2217.0693359375 442.1941223144531 -2212.79150390625 441.5 -2208.440673828125 441.5 C -2203.911865234375 441.5 -2199.468505859375 442.2508239746094 -2195.233642578125 443.7316589355469 C -2191.14013671875 445.1630249023438 -2187.322265625 447.2457885742188 -2183.8857421875 449.9219970703125 C -2180.4833984375 452.5715026855469 -2177.545166015625 455.7315673828125 -2175.15234375 459.3143920898438 C -2172.7216796875 462.9540710449219 -2170.91845703125 466.9359741210938 -2169.792724609375 471.1494750976563 L -2169.693603515625 471.5204162597656 L -2169.3095703125 471.5204162597656 L -2149.51904296875 471.5204162597656 L -2149.51904296875 508.5193176269531 L -2167.940673828125 508.5193176269531 L -2168.440673828125 508.5193176269531 L -2168.440673828125 509.0193176269531 L -2168.440673828125 531.0180053710938 L -2168.440673828125 531.5180053710938 L -2167.940673828125 531.5180053710938 L -2149.25732421875 531.5180053710938 L -2149.25732421875 568.5187377929688 L -2167.940673828125 568.5187377929688 L -2168.440673828125 568.5187377929688 L -2168.440673828125 569.0187377929688 L -2168.440673828125 597.9906005859375 L -2168.440673828125 598.4906005859375 L -2167.940673828125 598.4906005859375 L -2151.5 598.4906005859375 L -2151.5 635.4904174804688 L -2169.312255859375 635.4904174804688 L -2169.696044921875 635.4904174804688 L -2169.795166015625 635.8612670898438 C -2170.921630859375 640.0736083984375 -2172.725341796875 644.0543212890625 -2175.15625 647.6928100585938 C -2177.549072265625 651.2743530273438 -2180.4873046875 654.4332275390625 -2183.889404296875 657.0816650390625 C -2187.325439453125 659.7568359375 -2191.14306640625 661.838623046875 -2195.23583984375 663.2694091796875 C -2199.469970703125 664.74951171875 -2203.912841796875 665.5 -2208.440673828125 665.5 Z" stroke="none"/><path d="M -2208.440673828125 665 C -2203.968994140625 665 -2199.581787109375 664.2589111328125 -2195.40087890625 662.7974243164063 C -2191.359375 661.3846435546875 -2187.589599609375 659.3287963867188 -2184.196533203125 656.6871337890625 C -2180.836669921875 654.0716552734375 -2177.93505859375 650.9520263671875 -2175.572021484375 647.4150390625 C -2173.171630859375 643.8222045898438 -2171.390625 639.8914794921875 -2170.2783203125 635.7321166992188 L -2170.080078125 634.9904174804688 L -2169.312255859375 634.9904174804688 L -2152 634.9904174804688 L -2152 598.9906005859375 L -2167.940673828125 598.9906005859375 L -2168.940673828125 598.9906005859375 L -2168.940673828125 597.9906005859375 L -2168.940673828125 569.0187377929688 L -2168.940673828125 568.0187377929688 L -2167.940673828125 568.0187377929688 L -2149.75732421875 568.0187377929688 L -2149.75732421875 532.0180053710938 L -2167.940673828125 532.0180053710938 L -2168.940673828125 532.0180053710938 L -2168.940673828125 531.0180053710938 L -2168.940673828125 509.0193176269531 L -2168.940673828125 508.0193176269531 L -2167.940673828125 508.0193176269531 L -2150.01904296875 508.0193176269531 L -2150.01904296875 472.0204162597656 L -2169.3095703125 472.0204162597656 L -2170.077392578125 472.0204162597656 L -2170.275634765625 471.2785339355469 C -2171.38720703125 467.1180419921875 -2173.16796875 463.1861267089844 -2175.568115234375 459.5920715332031 C -2177.93115234375 456.0538024902344 -2180.8330078125 452.9330444335938 -2184.19287109375 450.3164672851563 C -2187.58642578125 447.6737060546875 -2191.356689453125 445.6170349121094 -2195.398681640625 444.20361328125 C -2199.580322265625 442.7414245605469 -2203.96826171875 442 -2208.440673828125 442 C -2212.7373046875 442 -2216.9619140625 442.6854248046875 -2220.996826171875 444.0371704101563 C -2224.8984375 445.3443603515625 -2228.562255859375 447.2520446777344 -2231.885986328125 449.7073669433594 C -2235.17138671875 452.1344299316406 -2238.052490234375 455.0421142578125 -2240.448974609375 458.3495788574219 C -2242.874755859375 461.6976928710938 -2244.749267578125 465.3811950683594 -2246.020263671875 469.2977600097656 L -2246.24462890625 469.9891052246094 L -2246.971435546875 469.9891052246094 L -2266.757080078125 469.9891052246094 L -2266.757080078125 505.9898376464844 L -2248.93994140625 505.9898376464844 L -2247.93994140625 505.9898376464844 L -2247.93994140625 506.9898376464844 L -2247.93994140625 533.0529174804688 L -2247.93994140625 534.0529174804688 L -2248.93994140625 534.0529174804688 L -2267 534.0529174804688 L -2267 570.052734375 L -2248.93994140625 570.052734375 L -2247.93994140625 570.052734375 L -2247.93994140625 571.052734375 L -2247.93994140625 603.0513305664063 L -2247.93994140625 604.0513305664063 L -2248.93994140625 604.0513305664063 L -2266.757080078125 604.0513305664063 L -2266.757080078125 640.0510864257813 L -2245.846923828125 640.0510864257813 L -2245.179931640625 640.0510864257813 L -2244.923583984375 640.6668701171875 C -2243.44970703125 644.2083129882813 -2241.4658203125 647.5154418945313 -2239.026611328125 650.4963989257813 C -2236.60546875 653.4556884765625 -2233.77587890625 656.044921875 -2230.616943359375 658.192138671875 C -2224.064453125 662.6458740234375 -2216.39599609375 665 -2208.440673828125 665 M -2208.440673828125 666 C -2225.29833984375 666 -2239.75 655.7007446289063 -2245.846923828125 641.0510864257813 L -2267.757080078125 641.0510864257813 L -2267.757080078125 603.0513305664063 L -2248.93994140625 603.0513305664063 L -2248.93994140625 571.052734375 L -2268 571.052734375 L -2268 533.0529174804688 L -2248.93994140625 533.0529174804688 L -2248.93994140625 506.9898376464844 L -2267.757080078125 506.9898376464844 L -2267.757080078125 468.9891052246094 L -2246.971435546875 468.9891052246094 C -2241.7001953125 452.7450256347656 -2226.442626953125 441 -2208.440673828125 441 C -2189.697265625 441 -2173.928466796875 453.7332153320313 -2169.3095703125 471.0204162597656 L -2149.01904296875 471.0204162597656 L -2149.01904296875 509.0193176269531 L -2167.940673828125 509.0193176269531 L -2167.940673828125 531.0180053710938 L -2148.75732421875 531.0180053710938 L -2148.75732421875 569.0187377929688 L -2167.940673828125 569.0187377929688 L -2167.940673828125 597.9906005859375 L -2151 597.9906005859375 L -2151 635.9904174804688 L -2169.312255859375 635.9904174804688 C -2173.933837890625 653.2731323242188 -2189.700927734375 666 -2208.440673828125 666 Z" stroke="none" fill="#707070"/></g></g><g transform="matrix(1, 0, 0, 1, 0, 0)" filter="url(#c)"><text transform="translate(1251.46 475.17)" fill="#0e3e46" font-size="40" font-family="ArialMT, Arial"><tspan x="0" y="36">Inspire</tspan></text></g><g transform="translate(1526.012 525.721)" clip-path="url(#e)"><g transform="translate(-1492 -499.5)"><line y2="178" transform="translate(1499.5 499.5)" fill="none" stroke="#050505" stroke-width="15" opacity="0.83"/></g></g><g transform="translate(1349.265 738.232)" fill="#343030" stroke="#707070" stroke-width="1"><rect width="69" height="20" rx="10" stroke="none"/><rect x="0.5" y="0.5" width="68" height="19" rx="9.5" fill="none"/></g><g transform="matrix(1, 0, 0, 1, 0, 0)" filter="url(#f)"><ellipse cx="24.5" cy="25" rx="24.5" ry="25" transform="translate(1509.19 393.14)" fill="#f5c11c"/></g><g transform="translate(-587.922 459.476)"><g transform="matrix(1, 0, 0, 1, 587.92, -459.48)" filter="url(#h)"><ellipse cx="24.5" cy="25.749" rx="24.5" ry="25.749" transform="translate(1509.19 330.61)" fill="#f21818"/></g></g><g transform="matrix(1, 0, 0, 1, 0, 0)" filter="url(#j)"><g transform="translate(1509.2 456.17)" fill="#85f218" stroke="#85f218" stroke-width="1"><ellipse cx="24.5" cy="25.5" rx="24.5" ry="25.5" stroke="none"/><ellipse cx="24.5" cy="25.5" rx="24" ry="25" fill="none"/></g></g><path d="M2268,639.162s321.721,18.514,737.653-118.463,238.693-54.583,670.89-244.957S4186.9-267.387,4186.9-267.387l.849,906.549Z" transform="translate(-2268 440)" fill="#241919" stroke="#707070" stroke-width="1"/><path d="M2269,649.594h212.816s507.354-52.771,858.972-183.254S3693.351,339.7,3842.768,256.555c149.95-109.718,109.923-89.2,219.641-211.105,194.984-233.163,124.347-458.377,124.347-458.377l5.37,1066.351Z" transform="translate(-2268 427.653)" fill="#f8e6e6" stroke="#707070" stroke-width="1"/><path d="M2752.971,867.327c117.206-6.26,250.038,36.786,671.979-95.426s765.745-341.29,851.695-504.249,83.347-332.067,83.347-332.067V867.327Z" transform="translate(-2440 211.199)" fill="#241919" stroke="#707070" stroke-width="1"/><path d="M3806.806,835.335s92.163-15.158,179.717-116.565,198.148-247.884,200.453-379.338,0,495.9,0,495.9Z" transform="translate(-2268 244.665)" fill="#f8e6e6" stroke="#707070" stroke-width="1"/><path d="M3950.721,809.95s92.146-59.187,142.828-131.832S4188,460.182,4188,460.182V809.95Z" transform="translate(-2268 270.05)" fill="#241919" stroke="#707070" stroke-width="1"/><g transform="translate(1293.66 1044.091) rotate(-31)" fill="#fff"><path d="M 34.48983383178711 42.28813934326172 L 2.54905891418457 3.052946329116821 L 210.7072906494141 -1.231127738952637 L 244.6815490722656 29.62467575073242 L 34.48983383178711 42.28813934326172 Z" stroke="none"/><path d="M 210.5184936523438 -0.7271881103515625 L 3.58355712890625 3.531742095947266 L 34.71572875976563 41.77359390258789 L 243.4669036865234 29.19694900512695 L 210.5184936523438 -0.7271881103515625 M 210.8960266113281 -1.735160827636719 L 245.8961944580078 30.05240058898926 L 34.26397705078125 42.80261993408203 L 1.514495849609375 2.574119567871094 L 210.8960266113281 -1.735160827636719 Z" stroke="none" fill="#707070"/></g><g transform="translate(1544.721 875.199) rotate(-31)" fill="#fff"><path d="M 26.77158355712891 29.0995044708252 L 2.606042623519897 1.777272343635559 L 161.4477386474609 -1.231691002845764 L 187.0962524414063 20.20899963378906 L 26.77158355712891 29.0995044708252 Z" stroke="none"/><path d="M 161.2704010009766 -0.7282485961914063 L 3.697555541992188 2.256679534912109 L 26.98565673828125 28.58686065673828 L 185.8033905029297 19.77992248535156 L 161.2704010009766 -0.7282485961914063 M 161.6250762939453 -1.735134124755859 L 188.3891296386719 20.63808059692383 L 26.55747985839844 29.61215019226074 L 1.514511108398438 1.29786491394043 L 161.6250762939453 -1.735134124755859 Z" stroke="none" fill="#707070"/></g><g transform="translate(1741.181 727.965) rotate(-31)" fill="#fff"><path d="M 17.37105560302734 29.9225025177002 L -18.12211227416992 8.596050262451172 L 102.059455871582 -1.223697423934937 L 131.8217315673828 16.65928649902344 L 17.37105560302734 29.9225025177002 Z" stroke="none"/><path d="M 101.9398193359375 -0.7122573852539063 L -16.53257751464844 8.967838287353516 L 17.48262023925781 29.40622329711914 L 130.3056182861328 16.33163070678711 L 101.9398193359375 -0.7122573852539063 M 102.1790542602539 -1.735137939453125 L 133.3378295898438 16.98694229125977 L 17.25949096679688 30.43878173828125 L -19.71168518066406 8.224262237548828 L 102.1790542602539 -1.735137939453125 Z" stroke="none" fill="#707070"/></g><g transform="translate(142.348 -55)"><g transform="matrix(1, 0, 0, 1, -142.35, 55)" filter="url(#l)"><text transform="translate(1252.45 318.77)" fill="#0e3e46" font-size="40" font-family="ArialMT, Arial"><tspan x="0" y="36">Learn</tspan></text></g><g transform="translate(1077.652 364)" fill="none" stroke="#707070" stroke-width="1"><rect width="161" height="61" rx="30.5" stroke="none"/><rect x="0.5" y="0.5" width="160" height="60" rx="30" fill="none"/></g></g><g transform="translate(294 -42)"><g transform="matrix(1, 0, 0, 1, -294, 42)" filter="url(#n)"><text transform="translate(1228.35 397.93)" fill="#0e3e46" font-size="40" font-family="ArialMT, Arial"><tspan x="0" y="36">Connect</tspan></text></g><g transform="translate(906 432)" fill="none" stroke="#707070" stroke-width="1"><rect width="218" height="62" rx="31" stroke="none"/><rect x="0.5" y="0.5" width="217" height="61" rx="30.5" fill="none"/></g></g><g transform="translate(933 465)" fill="#fff" stroke="#707070" stroke-width="1"><rect width="1" height="1" stroke="none"/><rect x="0.5" y="0.5" fill="none"/></g><g transform="translate(1203 470)" fill="none" stroke="#707070" stroke-width="1"><rect width="207" height="56" rx="28" stroke="none"/><rect x="0.5" y="0.5" width="206" height="55" rx="27.5" fill="none"/></g><path d="M2268,452.017s93.4,18.318,189.816-25.645,108.919-71.439,123.2-86.093,46.424-111.737-8.928-144.708-108.919-49.457-103.562-84.261,44.639-97.083,0-164.858-62.494-256.446,153.558-172.185,51.781-217.979,51.781-217.979H2269Z" transform="translate(-2351 444)" fill="#57535f" stroke="#707070" stroke-width="1"/><path d="M2268,457.309s93.4,18.426,189.816-25.8,108.919-71.861,123.2-86.6,46.424-112.4-8.928-145.563S2463.173,149.6,2468.53,114.59s44.639-97.657,0-165.832-62.494-257.961,153.558-173.2,51.781-219.267,51.781-219.267H2269Z" transform="translate(-2399 444)" fill="#1b0d35" stroke="#1b0d35" stroke-width="1"/></g></svg>